<svg xmlns="http://www.w3.org/2000/svg" width="147" height="147">
  <path d="M 73.953 1 C 114.245 1 146.906 33.662 146.906 73.953 C 146.906 114.245 114.245 146.906 73.953 146.906 C 33.662 146.906 1 114.245 1 73.953 C 1 33.662 33.662 1 73.953 1 Z" fill="hsl(0, 0%, 0%)"></path>
  <g>
    <defs>
      <radialGradient id="idZm1OihdKMg327915912" cy="0.778" cx="0.805" r="1" gradientTransform="translate(0.805, 0.778) scale(1 1) translate(-0.805, -0.778)">
        <stop offset="0" stop-color="hsl(0, 0%, 100%)" stop-opacity="1"></stop>
        <stop offset="1" stop-color="hsla(0, 0%, 100%, 0)" stop-opacity="0"></stop>
      </radialGradient>
    </defs>
    <path d="M 73.953 1 C 114.245 1 146.906 33.662 146.906 73.953 C 146.906 114.245 114.245 146.906 73.953 146.906 C 33.662 146.906 1 114.245 1 73.953 C 1 33.662 33.662 1 73.953 1 Z" fill="url(#idZm1OihdKMg327915912)"></path>
  </g>
  <g>
    <defs>
      <radialGradient id="idoBpP7HI6hg-313933187" cy="0.172" cx="0.228" r="0.5" gradientTransform="translate(0.228, 0.172) scale(1 1) translate(-0.228, -0.172)">
        <stop offset="0" stop-color="hsl(218, 29%, 75%)" stop-opacity="1"></stop>
        <stop offset="1" stop-color="hsla(0, 5%, 77%, 0)" stop-opacity="0"></stop>
      </radialGradient>
    </defs>
    <path d="M 73.953 1 C 114.245 1 146.906 33.662 146.906 73.953 C 146.906 114.245 114.245 146.906 73.953 146.906 C 33.662 146.906 1 114.245 1 73.953 C 1 33.662 33.662 1 73.953 1 Z" fill="url(#idoBpP7HI6hg-313933187)"></path>
  </g>
</svg>